RBDS025runT45_grf
version=1
nRows=12
nColumns=19
inDegrees=no
endheader
time	ground_force_r_vx	ground_force_r_vy	ground_force_r_vz	ground_force_r_px	ground_force_r_py	ground_force_r_pz	ground_force_r_mx	ground_force_r_my	ground_force_r_mz	ground_force_l_vx	ground_force_l_vy	ground_force_l_vz	ground_force_l_px	ground_force_l_py	ground_force_l_pz	ground_force_l_mx	ground_force_l_my	ground_force_l_mz
     22.49800000	      0.00000000	      0.00000000	      0.00000000	      0.00000000	      0.00000000	      0.00000000	      0.00000000	      0.00000000	      0.00000000	      2.91776850	   1595.15949498	     21.93800496	      1.98845382	      0.00000000	      0.92275460	      0.00000000	      9.72190489	      0.00000000
     22.49900000	      0.00000000	      0.00000000	      0.00000000	      0.00000000	      0.00000000	      0.00000000	      0.00000000	      0.00000000	      0.00000000	     10.49138808	   1586.63553932	     21.14067819	      1.98425092	      0.00000000	      0.92271832	      0.00000000	      9.82749477	      0.00000000
     22.50000000	      0.00000000	      0.00000000	      0.00000000	      0.00000000	      0.00000000	      0.00000000	      0.00000000	      0.00000000	      0.00000000	     18.06500765	   1578.11158366	     20.34335141	      1.98004802	      0.00000000	      0.92268203	      0.00000000	      9.93308465	      0.00000000
     22.50100000	      0.00000000	      0.00000000	      0.00000000	      0.00000000	      0.00000000	      0.00000000	      0.00000000	      0.00000000	      0.00000000	     25.50270924	   1568.10937885	     19.38224384	      1.97586139	      0.00000000	      0.92265500	      0.00000000	     10.00687971	      0.00000000
     22.50200000	      0.00000000	      0.00000000	      0.00000000	      0.00000000	      0.00000000	      0.00000000	      0.00000000	      0.00000000	      0.00000000	     32.94041082	   1558.10717403	     18.42113626	      1.97167475	      0.00000000	      0.92262797	      0.00000000	     10.08067476	      0.00000000
     22.50300000	      0.00000000	      0.00000000	      0.00000000	      0.00000000	      0.00000000	      0.00000000	      0.00000000	      0.00000000	      0.00000000	     40.37811241	   1548.10496922	     17.46002868	      1.96748811	      0.00000000	      0.92260093	      0.00000000	     10.15446981	      0.00000000
     22.50400000	      0.00000000	      0.00000000	      0.00000000	      0.00000000	      0.00000000	      0.00000000	      0.00000000	      0.00000000	      0.00000000	     47.64184111	   1537.09658430	     16.41146661	      1.96331889	      0.00000000	      0.92257922	      0.00000000	     10.20734876	      0.00000000
     22.50500000	      0.00000000	      0.00000000	      0.00000000	      0.00000000	      0.00000000	      0.00000000	      0.00000000	      0.00000000	      0.00000000	     54.81858335	   1525.58510933	     15.31917730	      1.95915839	      0.00000000	      0.92256017	      0.00000000	     10.24976965	      0.00000000
     22.50600000	      0.00000000	      0.00000000	      0.00000000	      0.00000000	      0.00000000	      0.00000000	      0.00000000	      0.00000000	      0.00000000	     61.99532560	   1514.07363436	     14.22688798	      1.95499788	      0.00000000	      0.92254111	      0.00000000	     10.29219054	      0.00000000
     22.50700000	      0.00000000	      0.00000000	      0.00000000	      0.00000000	      0.00000000	      0.00000000	      0.00000000	      0.00000000	      0.00000000	     69.04552537	   1502.05463669	     13.10293564	      1.95084922	      0.00000000	      0.92252423	      0.00000000	     10.32442647	      0.00000000
     22.50800000	      0.00000000	      0.00000000	      0.00000000	      0.00000000	      0.00000000	      0.00000000	      0.00000000	      0.00000000	      0.00000000	     75.84264018	   1489.02059363	     11.91565724	      1.94672424	      0.00000000	      0.92251169	      0.00000000	     10.33629246	      0.00000000
     22.50900000	      0.00000000	      0.00000000	      0.00000000	      0.00000000	      0.00000000	      0.00000000	      0.00000000	      0.00000000	      0.00000000	     82.63975499	   1475.98655056	     10.72837885	      1.94259927	      0.00000000	      0.92249916	      0.00000000	     10.34815845	      0.00000000
